# Blender 4.1.1
# www.blender.org
mtllib skyDome.mtl
o 球
v 0.000000 1.662939 1.111140
v 0.000000 1.111140 1.662939
v 0.000000 0.390181 1.961571
v 0.000000 0.000000 2.000000
v 0.000000 -0.390181 1.961571
v 0.000000 -1.111140 1.662939
v -0.076120 1.961571 0.382683
v -0.149316 1.847759 0.750661
v -0.216773 1.662939 1.089790
v -0.275899 1.414214 1.387040
v -0.324423 1.111140 1.630986
v -0.360480 0.765367 1.812255
v -0.382683 0.390181 1.923879
v -0.390181 0.000000 1.961571
v -0.382683 -0.390181 1.923879
v -0.360480 -0.765367 1.812255
v -0.324423 -1.111140 1.630986
v -0.275899 -1.414214 1.387040
v -0.216773 -1.662939 1.089790
v -0.149316 -1.847759 0.750661
v -0.076120 -1.961571 0.382683
v -0.149316 1.961571 0.360480
v -0.292893 1.847759 0.707107
v -0.425215 1.662939 1.026560
v -0.541196 1.414214 1.306563
v -0.636379 1.111140 1.536355
v -0.707107 0.765367 1.707107
v -0.750661 0.390181 1.812255
v -0.765367 0.000000 1.847759
v -0.750661 -0.390181 1.812255
v -0.707107 -0.765367 1.707107
v -0.636379 -1.111140 1.536355
v -0.541196 -1.414214 1.306563
v -0.425215 -1.662939 1.026560
v -0.292893 -1.847759 0.707107
v -0.149316 -1.961571 0.360480
v -0.216773 1.961571 0.324423
v -0.425215 1.847759 0.636379
v -0.617317 1.662939 0.923879
v -0.785695 1.414214 1.175876
v -0.923879 1.111140 1.382683
v -1.026560 0.765367 1.536355
v -1.089790 0.390181 1.630986
v -1.111140 0.000000 1.662939
v -1.089790 -0.390181 1.630986
v -1.026560 -0.765367 1.536355
v -0.923879 -1.111140 1.382683
v -0.785695 -1.414214 1.175876
v -0.617317 -1.662939 0.923879
v -0.425215 -1.847759 0.636379
v -0.216773 -1.961571 0.324423
v -0.275899 1.961571 0.275899
v -0.541196 1.847759 0.541196
v -0.785695 1.662939 0.785695
v -1.000000 1.414214 1.000000
v -1.175875 1.111140 1.175875
v -1.306563 0.765367 1.306563
v -1.387040 0.390181 1.387040
v -1.414214 0.000000 1.414213
v -1.387040 -0.390181 1.387040
v -1.306563 -0.765367 1.306563
v -1.175875 -1.111140 1.175875
v -1.000000 -1.414214 1.000000
v -0.785695 -1.662939 0.785695
v -0.541196 -1.847759 0.541196
v -0.275899 -1.961571 0.275899
v -0.324423 1.961571 0.216773
v -0.636379 1.847759 0.425215
v -0.923879 1.662939 0.617316
v -1.175876 1.414214 0.785695
v -1.382683 1.111140 0.923879
v -1.536355 0.765367 1.026560
v -1.630986 0.390181 1.089790
v -1.662939 0.000000 1.111140
v -1.630986 -0.390181 1.089790
v -1.536355 -0.765367 1.026560
v -1.382683 -1.111140 0.923879
v -1.175876 -1.414214 0.785695
v -0.923879 -1.662939 0.617316
v -0.636379 -1.847759 0.425215
v -0.324423 -1.961571 0.216773
v 0.000000 2.000000 0.000000
v -0.360480 1.961571 0.149316
v -0.707107 1.847759 0.292893
v -1.026560 1.662939 0.425215
v -1.306563 1.414214 0.541196
v -1.536355 1.111140 0.636379
v -1.707107 0.765367 0.707107
v -1.812255 0.390181 0.750660
v -1.847759 0.000000 0.765366
v -1.812255 -0.390181 0.750660
v -1.707107 -0.765367 0.707107
v -1.536355 -1.111140 0.636379
v -1.306563 -1.414214 0.541196
v -1.026560 -1.662939 0.425215
v -0.707107 -1.847759 0.292893
v -0.360480 -1.961571 0.149316
v -0.382683 1.961571 0.076120
v -0.750660 1.847759 0.149316
v -1.089790 1.662939 0.216773
v -1.387040 1.414214 0.275899
v -1.630986 1.111140 0.324423
v -1.812255 0.765367 0.360480
v -1.923879 0.390181 0.382683
v -1.961570 0.000000 0.390180
v -1.923879 -0.390181 0.382683
v -1.812255 -0.765367 0.360480
v -1.630986 -1.111140 0.324423
v -1.387040 -1.414214 0.275899
v -1.089790 -1.662939 0.216773
v -0.750660 -1.847759 0.149316
v -0.382683 -1.961571 0.076120
v -0.390181 1.961571 -0.000000
v -0.765367 1.847759 -0.000000
v -1.111140 1.662939 -0.000000
v -1.414213 1.414214 0.000000
v -1.662939 1.111140 -0.000000
v -1.847759 0.765367 0.000000
v -1.961570 0.390181 -0.000000
v -1.999999 0.000000 -0.000000
v -1.961570 -0.390181 -0.000000
v -1.847759 -0.765367 0.000000
v -1.662939 -1.111140 -0.000000
v -1.414213 -1.414214 0.000000
v -1.111140 -1.662939 -0.000000
v -0.765367 -1.847759 -0.000000
v -0.390181 -1.961571 -0.000000
v -0.382683 1.961571 -0.076120
v -0.750660 1.847759 -0.149316
v -1.089790 1.662939 -0.216773
v -1.387040 1.414214 -0.275899
v -1.630986 1.111140 -0.324423
v -1.812255 0.765367 -0.360480
v -1.923879 0.390181 -0.382684
v -1.961570 0.000000 -0.390181
v -1.923879 -0.390181 -0.382684
v -1.812255 -0.765367 -0.360480
v -1.630986 -1.111140 -0.324423
v -1.387040 -1.414214 -0.275899
v -1.089790 -1.662939 -0.216773
v -0.750660 -1.847759 -0.149316
v -0.382683 -1.961571 -0.076120
v -0.360480 1.961571 -0.149316
v -0.707107 1.847759 -0.292893
v -1.026560 1.662939 -0.425215
v -1.306563 1.414214 -0.541196
v -1.536355 1.111140 -0.636379
v -1.707107 0.765367 -0.707107
v -1.812254 0.390181 -0.750661
v -1.847758 0.000000 -0.765367
v -1.812254 -0.390181 -0.750661
v -1.707107 -0.765367 -0.707107
v -1.536355 -1.111140 -0.636379
v -1.306563 -1.414214 -0.541196
v -1.026560 -1.662939 -0.425215
v -0.707107 -1.847759 -0.292893
v -0.360480 -1.961571 -0.149316
v -0.324423 1.961571 -0.216773
v -0.636379 1.847759 -0.425215
v -0.923879 1.662939 -0.617316
v -1.175875 1.414214 -0.785695
v -1.382683 1.111140 -0.923879
v -1.536355 0.765367 -1.026560
v -1.630986 0.390181 -1.089790
v -1.662938 0.000000 -1.111140
v -1.630986 -0.390181 -1.089790
v -1.536355 -0.765367 -1.026560
v -1.382683 -1.111140 -0.923879
v -1.175875 -1.414214 -0.785695
v -0.923879 -1.662939 -0.617316
v -0.636379 -1.847759 -0.425215
v -0.324423 -1.961571 -0.216773
v -0.275899 1.961571 -0.275899
v -0.541196 1.847759 -0.541196
v -0.785695 1.662939 -0.785695
v -1.000000 1.414214 -1.000000
v -1.175875 1.111140 -1.175875
v -1.306563 0.765367 -1.306563
v -1.387039 0.390181 -1.387040
v -1.414212 0.000000 -1.414213
v -1.387039 -0.390181 -1.387040
v -1.306563 -0.765367 -1.306563
v -1.175875 -1.111140 -1.175875
v -1.000000 -1.414214 -1.000000
v -0.785695 -1.662939 -0.785695
v -0.541196 -1.847759 -0.541196
v -0.275899 -1.961571 -0.275899
v -0.216773 1.961571 -0.324423
v -0.425215 1.847759 -0.636379
v -0.617316 1.662939 -0.923879
v -0.785695 1.414214 -1.175875
v -0.923879 1.111140 -1.382683
v -1.026560 0.765367 -1.536355
v -1.089790 0.390181 -1.630986
v -1.111139 0.000000 -1.662939
v -1.089790 -0.390181 -1.630986
v -1.026560 -0.765367 -1.536355
v -0.923879 -1.111140 -1.382683
v -0.785695 -1.414214 -1.175875
v -0.617316 -1.662939 -0.923879
v -0.425215 -1.847759 -0.636379
v -0.216773 -1.961571 -0.324423
v -0.149316 1.961571 -0.360480
v -0.292893 1.847759 -0.707107
v -0.425215 1.662939 -1.026560
v -0.541196 1.414214 -1.306563
v -0.636379 1.111140 -1.536355
v -0.707107 0.765367 -1.707106
v -0.750660 0.390181 -1.812254
v -0.765366 0.000000 -1.847758
v -0.750660 -0.390181 -1.812254
v -0.707107 -0.765367 -1.707106
v -0.636379 -1.111140 -1.536355
v -0.541196 -1.414214 -1.306563
v -0.425215 -1.662939 -1.026560
v -0.292893 -1.847759 -0.707107
v -0.149316 -1.961571 -0.360480
v -0.076120 1.961571 -0.382683
v -0.149316 1.847759 -0.750660
v -0.216772 1.662939 -1.089790
v -0.275899 1.414214 -1.387040
v -0.324423 1.111140 -1.630986
v -0.360480 0.765367 -1.812254
v -0.382683 0.390181 -1.923879
v -0.390180 0.000000 -1.961570
v -0.382683 -0.390181 -1.923879
v -0.360480 -0.765367 -1.812254
v -0.324423 -1.111140 -1.630986
v -0.275899 -1.414214 -1.387040
v -0.216772 -1.662939 -1.089790
v -0.149316 -1.847759 -0.750660
v -0.076120 -1.961571 -0.382683
v 0.000000 1.961571 -0.390180
v 0.000000 1.847759 -0.765367
v 0.000000 1.662939 -1.111140
v 0.000000 1.414214 -1.414213
v 0.000000 1.111140 -1.662939
v -0.000000 0.765367 -1.847759
v 0.000000 0.390181 -1.961570
v 0.000001 0.000000 -1.999999
v 0.000000 -0.390181 -1.961570
v -0.000000 -0.765367 -1.847759
v 0.000000 -1.111140 -1.662939
v 0.000000 -1.414214 -1.414213
v 0.000000 -1.662939 -1.111140
v 0.000000 -1.847759 -0.765367
v 0.000000 -1.961571 -0.390180
v 0.076120 1.961571 -0.382683
v 0.149316 1.847759 -0.750660
v 0.216773 1.662939 -1.089790
v 0.275899 1.414214 -1.387040
v 0.324423 1.111140 -1.630986
v 0.360480 0.765367 -1.812254
v 0.382684 0.390181 -1.923879
v 0.390181 0.000000 -1.961569
v 0.382684 -0.390181 -1.923879
v 0.360480 -0.765367 -1.812254
v 0.324423 -1.111140 -1.630986
v 0.275899 -1.414214 -1.387040
v 0.216773 -1.662939 -1.089790
v 0.149316 -1.847759 -0.750660
v 0.076120 -1.961571 -0.382683
v 0.149316 1.961571 -0.360480
v 0.292893 1.847759 -0.707107
v 0.425215 1.662939 -1.026559
v 0.541196 1.414214 -1.306563
v 0.636379 1.111140 -1.536355
v 0.707106 0.765367 -1.707106
v 0.750661 0.390181 -1.812254
v 0.765367 0.000000 -1.847757
v 0.750661 -0.390181 -1.812254
v 0.707106 -0.765367 -1.707106
v 0.636379 -1.111140 -1.536355
v 0.541196 -1.414214 -1.306563
v 0.425215 -1.662939 -1.026559
v 0.292893 -1.847759 -0.707107
v 0.149316 -1.961571 -0.360480
v 0.216773 1.961571 -0.324423
v 0.425215 1.847759 -0.636379
v 0.617316 1.662939 -0.923879
v 0.785695 1.414214 -1.175875
v 0.923879 1.111140 -1.382683
v 1.026559 0.765367 -1.536355
v 1.089790 0.390181 -1.630985
v 1.111140 0.000000 -1.662938
v 1.089790 -0.390181 -1.630985
v 1.026559 -0.765367 -1.536355
v 0.923879 -1.111140 -1.382683
v 0.785695 -1.414214 -1.175875
v 0.617316 -1.662939 -0.923879
v 0.425215 -1.847759 -0.636379
v 0.216773 -1.961571 -0.324423
v 0.275899 1.961571 -0.275899
v 0.541196 1.847759 -0.541196
v 0.785695 1.662939 -0.785694
v 1.000000 1.414214 -1.000000
v 1.175875 1.111140 -1.175875
v 1.306562 0.765367 -1.306563
v 1.387040 0.390181 -1.387039
v 1.414213 0.000000 -1.414212
v 1.387040 -0.390181 -1.387039
v 1.306562 -0.765367 -1.306563
v 1.175875 -1.111140 -1.175875
v 1.000000 -1.414214 -1.000000
v 0.785695 -1.662939 -0.785694
v 0.541196 -1.847759 -0.541196
v 0.275899 -1.961571 -0.275899
v 0.000000 -2.000000 0.000000
v 0.324423 1.961571 -0.216773
v 0.636379 1.847759 -0.425215
v 0.923879 1.662939 -0.617316
v 1.175875 1.414214 -0.785695
v 1.382683 1.111140 -0.923879
v 1.536355 0.765367 -1.026560
v 1.630986 0.390181 -1.089789
v 1.662938 0.000000 -1.111139
v 1.630986 -0.390181 -1.089789
v 1.536355 -0.765367 -1.026560
v 1.382683 -1.111140 -0.923879
v 1.175875 -1.414214 -0.785695
v 0.923879 -1.662939 -0.617316
v 0.636379 -1.847759 -0.425215
v 0.324423 -1.961571 -0.216773
v 0.360480 1.961571 -0.149316
v 0.707107 1.847759 -0.292893
v 1.026559 1.662939 -0.425214
v 1.306563 1.414214 -0.541196
v 1.536355 1.111140 -0.636379
v 1.707106 0.765367 -0.707107
v 1.812254 0.390181 -0.750660
v 1.847758 0.000000 -0.765365
v 1.812254 -0.390181 -0.750660
v 1.707106 -0.765367 -0.707107
v 1.536355 -1.111140 -0.636379
v 1.306563 -1.414214 -0.541196
v 1.026559 -1.662939 -0.425214
v 0.707107 -1.847759 -0.292893
v 0.360480 -1.961571 -0.149316
v 0.382683 1.961571 -0.076120
v 0.750660 1.847759 -0.149316
v 1.089789 1.662939 -0.216772
v 1.387040 1.414214 -0.275899
v 1.630985 1.111140 -0.324423
v 1.812254 0.765367 -0.360480
v 1.923879 0.390181 -0.382683
v 1.961569 0.000000 -0.390179
v 1.923879 -0.390181 -0.382683
v 1.812254 -0.765367 -0.360480
v 1.630985 -1.111140 -0.324423
v 1.387040 -1.414214 -0.275899
v 1.089789 -1.662939 -0.216772
v 0.750660 -1.847759 -0.149316
v 0.382683 -1.961571 -0.076120
v 0.390180 1.961571 0.000000
v 0.765366 1.847759 0.000000
v 1.111140 1.662939 0.000000
v 1.414213 1.414214 0.000000
v 1.662938 1.111140 0.000000
v 1.847758 0.765367 0.000000
v 1.961570 0.390181 0.000001
v 1.999998 0.000000 0.000001
v 1.961570 -0.390181 0.000001
v 1.847758 -0.765367 0.000000
v 1.662938 -1.111140 0.000000
v 1.414213 -1.414214 0.000000
v 1.111140 -1.662939 0.000000
v 0.765366 -1.847759 0.000000
v 0.390180 -1.961571 0.000000
v 0.382683 1.961571 0.076120
v 0.750660 1.847759 0.149316
v 1.089789 1.662939 0.216773
v 1.387039 1.414214 0.275899
v 1.630985 1.111140 0.324424
v 1.812254 0.765367 0.360480
v 1.923878 0.390181 0.382684
v 1.961568 0.000000 0.390181
v 1.923878 -0.390181 0.382684
v 1.812254 -0.765367 0.360480
v 1.630985 -1.111140 0.324424
v 1.387039 -1.414214 0.275899
v 1.089789 -1.662939 0.216773
v 0.750660 -1.847759 0.149316
v 0.382683 -1.961571 0.076120
v 0.360480 1.961571 0.149316
v 0.707106 1.847759 0.292893
v 1.026559 1.662939 0.425215
v 1.306563 1.414214 0.541196
v 1.536354 1.111140 0.636379
v 1.707106 0.765367 0.707106
v 1.812254 0.390181 0.750661
v 1.847757 0.000000 0.765367
v 1.812254 -0.390181 0.750661
v 1.707106 -0.765367 0.707106
v 1.536354 -1.111140 0.636379
v 1.306563 -1.414214 0.541196
v 1.026559 -1.662939 0.425215
v 0.707106 -1.847759 0.292893
v 0.360480 -1.961571 0.149316
v 0.324423 1.961571 0.216773
v 0.636379 1.847759 0.425215
v 0.923878 1.662939 0.617316
v 1.175875 1.414214 0.785695
v 1.382682 1.111140 0.923879
v 1.536355 0.765367 1.026559
v 1.630985 0.390181 1.089790
v 1.662937 0.000000 1.111140
v 1.630985 -0.390181 1.089790
v 1.536355 -0.765367 1.026559
v 1.382682 -1.111140 0.923879
v 1.175875 -1.414214 0.785695
v 0.923878 -1.662939 0.617316
v 0.636379 -1.847759 0.425215
v 0.324423 -1.961571 0.216773
v 0.275899 1.961571 0.275899
v 0.541196 1.847759 0.541196
v 0.785694 1.662939 0.785694
v 1.000000 1.414214 1.000000
v 1.175874 1.111140 1.175875
v 1.306562 0.765367 1.306562
v 1.387039 0.390181 1.387039
v 1.414211 0.000000 1.414213
v 1.387039 -0.390181 1.387039
v 1.306562 -0.765367 1.306562
v 1.175874 -1.111140 1.175875
v 1.000000 -1.414214 1.000000
v 0.785694 -1.662939 0.785694
v 0.541196 -1.847759 0.541196
v 0.275899 -1.961571 0.275899
v 0.216772 1.961571 0.324423
v 0.425215 1.847759 0.636379
v 0.617316 1.662939 0.923879
v 0.785695 1.414214 1.175875
v 0.923879 1.111140 1.382683
v 1.026559 0.765367 1.536355
v 1.089789 0.390181 1.630986
v 1.111138 0.000000 1.662938
v 1.089789 -0.390181 1.630986
v 1.026559 -0.765367 1.536355
v 0.923879 -1.111140 1.382683
v 0.785695 -1.414214 1.175875
v 0.617316 -1.662939 0.923879
v 0.425215 -1.847759 0.636379
v 0.216772 -1.961571 0.324423
v 0.149315 1.961571 0.360480
v 0.292893 1.847759 0.707106
v 0.425214 1.662939 1.026559
v 0.541196 1.414214 1.306563
v 0.636378 1.111140 1.536355
v 0.707106 0.765367 1.707106
v 0.750660 0.390181 1.812254
v 0.765365 0.000000 1.847757
v 0.750660 -0.390181 1.812254
v 0.707106 -0.765367 1.707106
v 0.636378 -1.111140 1.536355
v 0.541196 -1.414214 1.306563
v 0.425214 -1.662939 1.026559
v 0.292893 -1.847759 0.707106
v 0.149315 -1.961571 0.360480
v 0.076120 1.961571 0.382683
v 0.149315 1.847759 0.750660
v 0.216772 1.662939 1.089789
v 0.275899 1.414214 1.387040
v 0.324423 1.111140 1.630985
v 0.360480 0.765367 1.812254
v 0.382683 0.390181 1.923878
v 0.390179 0.000000 1.961568
v 0.382683 -0.390181 1.923878
v 0.360480 -0.765367 1.812254
v 0.324423 -1.111140 1.630985
v 0.275899 -1.414214 1.387040
v 0.216772 -1.662939 1.089789
v 0.149315 -1.847759 0.750660
v 0.076120 -1.961571 0.382683
v -0.000000 1.961571 0.390180
v -0.000000 1.847759 0.765366
v -0.000000 1.414214 1.414213
v -0.000000 0.765367 1.847758
v -0.000000 -0.765367 1.847758
v -0.000000 -1.414214 1.414213
v -0.000000 -1.662939 1.111139
v -0.000000 -1.847759 0.765366
v -0.000000 -1.961571 0.390180
vn 0.0938 0.2890 -0.9527
vn 0.0464 -0.8810 -0.4709
vn 0.0865 0.4696 -0.8786
vn 0.0624 -0.7715 -0.6332
vn 0.0759 0.6326 -0.7708
vn 0.0759 -0.6326 -0.7708
vn 0.0624 0.7715 -0.6332
vn 0.0865 -0.4696 -0.8786
vn 0.0464 0.8810 -0.4709
vn 0.0938 -0.2890 -0.9527
vn 0.0286 0.9565 -0.2902
vn 0.0975 -0.0975 -0.9904
vn 0.0097 -0.9951 -0.0980
vn 0.0097 0.9951 -0.0980
vn 0.0975 0.0975 -0.9904
vn 0.0286 -0.9565 -0.2902
vn 0.2889 0.0976 -0.9524
vn 0.0846 -0.9565 -0.2790
vn 0.2779 0.2890 -0.9161
vn 0.1374 -0.8810 -0.4528
vn 0.2563 0.4696 -0.8448
vn 0.1847 -0.7715 -0.6088
vn 0.2248 0.6326 -0.7412
vn 0.2248 -0.6326 -0.7412
vn 0.1847 0.7715 -0.6088
vn 0.2563 -0.4696 -0.8448
vn 0.1374 0.8810 -0.4528
vn 0.2779 -0.2890 -0.9161
vn 0.0846 0.9565 -0.2790
vn 0.2889 -0.0976 -0.9524
vn 0.0286 -0.9951 -0.0942
vn 0.0286 0.9951 -0.0942
vn 0.2999 0.7715 -0.5611
vn 0.4162 -0.4696 -0.7786
vn 0.2230 0.8810 -0.4173
vn 0.4513 -0.2890 -0.8443
vn 0.1374 0.9565 -0.2571
vn 0.4691 -0.0975 -0.8777
vn 0.0464 -0.9951 -0.0869
vn 0.0464 0.9951 -0.0869
vn 0.4691 0.0975 -0.8777
vn 0.1374 -0.9565 -0.2571
vn 0.4513 0.2890 -0.8443
vn 0.2230 -0.8810 -0.4173
vn 0.4162 0.4696 -0.7786
vn 0.2999 -0.7715 -0.5611
vn 0.3651 0.6326 -0.6831
vn 0.3651 -0.6326 -0.6831
vn 0.1850 -0.9565 -0.2254
vn 0.6073 0.2890 -0.7400
vn 0.3002 -0.8810 -0.3658
vn 0.5601 0.4696 -0.6825
vn 0.4036 -0.7715 -0.4918
vn 0.4913 0.6326 -0.5987
vn 0.4913 -0.6326 -0.5987
vn 0.4036 0.7715 -0.4918
vn 0.5601 -0.4696 -0.6825
vn 0.3002 0.8810 -0.3658
vn 0.6073 -0.2890 -0.7400
vn 0.1850 0.9565 -0.2254
vn 0.6314 -0.0975 -0.7693
vn 0.0625 -0.9951 -0.0761
vn 0.0625 0.9951 -0.0761
vn 0.6314 0.0975 -0.7693
vn 0.6825 -0.4696 -0.5601
vn 0.3658 0.8810 -0.3002
vn 0.7400 -0.2890 -0.6073
vn 0.2254 0.9565 -0.1850
vn 0.7693 -0.0975 -0.6314
vn 0.0761 -0.9951 -0.0625
vn 0.0761 0.9951 -0.0625
vn 0.7693 0.0975 -0.6314
vn 0.2254 -0.9565 -0.1850
vn 0.7400 0.2890 -0.6073
vn 0.3658 -0.8810 -0.3002
vn 0.6825 0.4696 -0.5601
vn 0.4918 -0.7715 -0.4036
vn 0.5987 0.6326 -0.4913
vn 0.5987 -0.6326 -0.4913
vn 0.4918 0.7715 -0.4036
vn 0.8443 0.2890 -0.4513
vn 0.4173 -0.8810 -0.2230
vn 0.7786 0.4696 -0.4162
vn 0.5611 -0.7715 -0.2999
vn 0.6831 0.6326 -0.3651
vn 0.6831 -0.6326 -0.3651
vn 0.5611 0.7715 -0.2999
vn 0.7786 -0.4696 -0.4162
vn 0.4173 0.8810 -0.2230
vn 0.8443 -0.2890 -0.4513
vn 0.2571 0.9565 -0.1374
vn 0.8777 -0.0975 -0.4691
vn 0.0869 -0.9951 -0.0464
vn 0.0869 0.9951 -0.0464
vn 0.8777 0.0975 -0.4691
vn 0.2571 -0.9565 -0.1374
vn 0.4528 0.8810 -0.1374
vn 0.9161 -0.2890 -0.2779
vn 0.2790 0.9565 -0.0846
vn 0.9524 -0.0975 -0.2889
vn 0.0942 -0.9951 -0.0286
vn 0.0942 0.9951 -0.0286
vn 0.9524 0.0975 -0.2889
vn 0.2790 -0.9565 -0.0846
vn 0.9161 0.2890 -0.2779
vn 0.4528 -0.8810 -0.1374
vn 0.8448 0.4696 -0.2563
vn 0.6088 -0.7715 -0.1847
vn 0.7412 0.6326 -0.2248
vn 0.7412 -0.6326 -0.2248
vn 0.6088 0.7715 -0.1847
vn 0.8448 -0.4696 -0.2563
vn 0.8786 0.4696 -0.0865
vn 0.6332 -0.7715 -0.0624
vn 0.7708 0.6326 -0.0759
vn 0.7708 -0.6326 -0.0759
vn 0.6332 0.7715 -0.0624
vn 0.8786 -0.4696 -0.0865
vn 0.4709 0.8810 -0.0464
vn 0.9527 -0.2890 -0.0938
vn 0.2902 0.9565 -0.0286
vn 0.9904 -0.0975 -0.0975
vn 0.0980 -0.9951 -0.0097
vn 0.0980 0.9951 -0.0097
vn 0.9904 0.0975 -0.0975
vn 0.2902 -0.9565 -0.0286
vn 0.9527 0.2890 -0.0938
vn 0.4709 -0.8810 -0.0464
vn 0.2902 0.9565 0.0286
vn 0.9904 -0.0975 0.0976
vn 0.0980 -0.9951 0.0097
vn 0.0980 0.9951 0.0097
vn 0.9904 0.0975 0.0976
vn 0.2902 -0.9565 0.0286
vn 0.9527 0.2890 0.0938
vn 0.4709 -0.8810 0.0464
vn 0.8786 0.4696 0.0865
vn 0.6332 -0.7715 0.0624
vn 0.7708 0.6326 0.0759
vn 0.7708 -0.6326 0.0759
vn 0.6332 0.7715 0.0624
vn 0.8786 -0.4696 0.0865
vn 0.4709 0.8810 0.0464
vn 0.9527 -0.2890 0.0938
vn 0.6088 -0.7715 0.1847
vn 0.7412 0.6326 0.2248
vn 0.7412 -0.6326 0.2248
vn 0.6088 0.7715 0.1847
vn 0.8448 -0.4696 0.2563
vn 0.4528 0.8810 0.1374
vn 0.9161 -0.2890 0.2779
vn 0.2790 0.9565 0.0846
vn 0.9524 -0.0975 0.2889
vn 0.0942 -0.9951 0.0286
vn 0.0942 0.9951 0.0286
vn 0.9524 0.0975 0.2889
vn 0.2790 -0.9565 0.0846
vn 0.9161 0.2890 0.2779
vn 0.4528 -0.8810 0.1374
vn 0.8448 0.4696 0.2563
vn 0.8777 -0.0975 0.4691
vn 0.0869 -0.9951 0.0464
vn 0.0869 0.9951 0.0464
vn 0.8777 0.0975 0.4691
vn 0.2571 -0.9565 0.1374
vn 0.8443 0.2890 0.4513
vn 0.4173 -0.8810 0.2230
vn 0.7786 0.4696 0.4162
vn 0.5611 -0.7715 0.2999
vn 0.6831 0.6326 0.3651
vn 0.6831 -0.6326 0.3651
vn 0.5611 0.7715 0.2999
vn 0.7786 -0.4696 0.4162
vn 0.4173 0.8810 0.2230
vn 0.8443 -0.2890 0.4513
vn 0.2571 0.9565 0.1374
vn 0.5987 0.6326 0.4913
vn 0.5987 -0.6326 0.4913
vn 0.4918 0.7715 0.4036
vn 0.6825 -0.4696 0.5601
vn 0.3658 0.8810 0.3002
vn 0.7400 -0.2890 0.6073
vn 0.2254 0.9565 0.1850
vn 0.7693 -0.0975 0.6314
vn 0.0761 -0.9951 0.0625
vn 0.0761 0.9951 0.0625
vn 0.7693 0.0975 0.6314
vn 0.2254 -0.9565 0.1850
vn 0.7400 0.2890 0.6073
vn 0.3658 -0.8810 0.3002
vn 0.6825 0.4696 0.5601
vn 0.4918 -0.7715 0.4036
vn 0.0625 -0.9951 0.0761
vn 0.0625 0.9951 0.0761
vn 0.6314 0.0975 0.7693
vn 0.1850 -0.9565 0.2254
vn 0.6073 0.2890 0.7400
vn 0.3002 -0.8810 0.3658
vn 0.5601 0.4696 0.6825
vn 0.4036 -0.7715 0.4918
vn 0.4913 0.6326 0.5987
vn 0.4913 -0.6326 0.5987
vn 0.4036 0.7715 0.4918
vn 0.5601 -0.4696 0.6825
vn 0.3002 0.8810 0.3658
vn 0.6073 -0.2890 0.7400
vn 0.1850 0.9565 0.2254
vn 0.6314 -0.0975 0.7693
vn 0.3651 -0.6326 0.6831
vn 0.2999 0.7715 0.5611
vn 0.4162 -0.4696 0.7786
vn 0.2230 0.8810 0.4173
vn 0.4513 -0.2890 0.8443
vn 0.1374 0.9565 0.2571
vn 0.4691 -0.0975 0.8777
vn 0.0464 -0.9951 0.0869
vn 0.0464 0.9951 0.0869
vn 0.4691 0.0975 0.8777
vn 0.1374 -0.9565 0.2571
vn 0.4513 0.2890 0.8443
vn 0.2230 -0.8810 0.4173
vn 0.4162 0.4696 0.7786
vn 0.2999 -0.7715 0.5611
vn 0.3651 0.6326 0.6831
vn 0.2889 0.0975 0.9524
vn 0.0846 -0.9565 0.2790
vn 0.2779 0.2890 0.9161
vn 0.1374 -0.8810 0.4528
vn 0.2563 0.4696 0.8448
vn 0.1847 -0.7715 0.6088
vn 0.2248 0.6326 0.7412
vn 0.2248 -0.6326 0.7412
vn 0.1847 0.7715 0.6088
vn 0.2563 -0.4696 0.8448
vn 0.1374 0.8810 0.4528
vn 0.2779 -0.2890 0.9161
vn 0.0846 0.9565 0.2790
vn 0.2889 -0.0975 0.9524
vn 0.0286 -0.9951 0.0942
vn 0.0286 0.9951 0.0942
vn 0.0624 0.7715 0.6332
vn 0.0865 -0.4696 0.8786
vn 0.0464 0.8810 0.4709
vn 0.0938 -0.2890 0.9527
vn 0.0286 0.9565 0.2902
vn 0.0975 -0.0975 0.9904
vn 0.0097 -0.9951 0.0980
vn 0.0097 0.9951 0.0980
vn 0.0975 0.0975 0.9904
vn 0.0286 -0.9565 0.2902
vn 0.0938 0.2890 0.9527
vn 0.0464 -0.8810 0.4709
vn 0.0865 0.4696 0.8786
vn 0.0624 -0.7715 0.6332
vn 0.0759 0.6326 0.7708
vn 0.0759 -0.6326 0.7708
vn -0.0938 0.2890 0.9527
vn -0.0464 -0.8810 0.4709
vn -0.0865 0.4696 0.8786
vn -0.0624 -0.7715 0.6332
vn -0.0759 0.6326 0.7708
vn -0.0759 -0.6326 0.7708
vn -0.0624 0.7715 0.6332
vn -0.0865 -0.4696 0.8786
vn -0.0464 0.8810 0.4709
vn -0.0938 -0.2890 0.9527
vn -0.0286 0.9565 0.2902
vn -0.0976 -0.0975 0.9904
vn -0.0097 -0.9951 0.0980
vn -0.0097 0.9951 0.0980
vn -0.0976 0.0975 0.9904
vn -0.0286 -0.9565 0.2902
vn -0.1374 0.8810 0.4528
vn -0.2779 -0.2890 0.9161
vn -0.0846 0.9565 0.2790
vn -0.2889 -0.0975 0.9524
vn -0.0286 -0.9951 0.0942
vn -0.0286 0.9951 0.0942
vn -0.2889 0.0975 0.9524
vn -0.0846 -0.9565 0.2790
vn -0.2779 0.2890 0.9161
vn -0.1374 -0.8810 0.4528
vn -0.2563 0.4696 0.8448
vn -0.1847 -0.7715 0.6088
vn -0.2248 0.6326 0.7412
vn -0.2248 -0.6326 0.7412
vn -0.1847 0.7715 0.6088
vn -0.2563 -0.4696 0.8448
vn -0.2231 -0.8810 0.4173
vn -0.4162 0.4696 0.7786
vn -0.2999 -0.7715 0.5611
vn -0.3651 0.6326 0.6831
vn -0.3651 -0.6326 0.6831
vn -0.2999 0.7715 0.5611
vn -0.4162 -0.4696 0.7786
vn -0.2230 0.8810 0.4173
vn -0.4513 -0.2890 0.8443
vn -0.1374 0.9565 0.2571
vn -0.4691 -0.0975 0.8777
vn -0.0464 -0.9951 0.0869
vn -0.0464 0.9951 0.0869
vn -0.4691 0.0975 0.8777
vn -0.1374 -0.9565 0.2571
vn -0.4513 0.2890 0.8443
vn -0.6073 -0.2890 0.7400
vn -0.1850 0.9565 0.2254
vn -0.6314 -0.0975 0.7693
vn -0.0625 -0.9951 0.0761
vn -0.0625 0.9951 0.0761
vn -0.6314 0.0975 0.7693
vn -0.1850 -0.9565 0.2254
vn -0.6073 0.2890 0.7400
vn -0.3002 -0.8810 0.3658
vn -0.5601 0.4696 0.6825
vn -0.4036 -0.7715 0.4918
vn -0.4913 0.6326 0.5987
vn -0.4913 -0.6326 0.5987
vn -0.4036 0.7715 0.4918
vn -0.5601 -0.4696 0.6825
vn -0.3002 0.8810 0.3658
vn -0.6825 0.4696 0.5601
vn -0.4918 -0.7715 0.4036
vn -0.5987 0.6326 0.4913
vn -0.5987 -0.6326 0.4913
vn -0.4918 0.7715 0.4036
vn -0.6825 -0.4696 0.5601
vn -0.3658 0.8810 0.3002
vn -0.7400 -0.2890 0.6073
vn -0.2254 0.9565 0.1850
vn -0.7693 -0.0975 0.6314
vn -0.0761 -0.9951 0.0625
vn -0.0761 0.9951 0.0625
vn -0.7693 0.0975 0.6314
vn -0.2254 -0.9565 0.1850
vn -0.7400 0.2890 0.6073
vn -0.3658 -0.8810 0.3002
vn -0.2571 0.9565 0.1374
vn -0.8777 -0.0975 0.4691
vn -0.0869 -0.9951 0.0464
vn -0.0869 0.9951 0.0464
vn -0.8777 0.0975 0.4691
vn -0.2571 -0.9565 0.1374
vn -0.8443 0.2890 0.4513
vn -0.4173 -0.8810 0.2230
vn -0.7786 0.4696 0.4162
vn -0.5611 -0.7715 0.2999
vn -0.6831 0.6326 0.3651
vn -0.6831 -0.6326 0.3651
vn -0.5611 0.7715 0.2999
vn -0.7786 -0.4696 0.4162
vn -0.4173 0.8810 0.2230
vn -0.8443 -0.2890 0.4513
vn -0.6088 -0.7715 0.1847
vn -0.7412 0.6326 0.2248
vn -0.7412 -0.6326 0.2248
vn -0.6088 0.7715 0.1847
vn -0.8448 -0.4696 0.2563
vn -0.4528 0.8810 0.1374
vn -0.9161 -0.2890 0.2779
vn -0.2790 0.9565 0.0846
vn -0.9524 -0.0975 0.2889
vn -0.0942 -0.9951 0.0286
vn -0.0942 0.9951 0.0286
vn -0.9524 0.0975 0.2889
vn -0.2790 -0.9565 0.0846
vn -0.9161 0.2890 0.2779
vn -0.4528 -0.8810 0.1374
vn -0.8448 0.4696 0.2563
vn -0.9904 -0.0975 0.0975
vn -0.0980 -0.9951 0.0097
vn -0.0980 0.9951 0.0097
vn -0.9904 0.0975 0.0975
vn -0.2902 -0.9565 0.0286
vn -0.9527 0.2890 0.0938
vn -0.4709 -0.8810 0.0464
vn -0.8786 0.4696 0.0865
vn -0.6332 -0.7715 0.0624
vn -0.7708 0.6326 0.0759
vn -0.7708 -0.6326 0.0759
vn -0.6332 0.7715 0.0624
vn -0.8786 -0.4696 0.0865
vn -0.4709 0.8810 0.0464
vn -0.9527 -0.2890 0.0938
vn -0.2902 0.9565 0.0286
vn -0.7708 0.6326 -0.0759
vn -0.7708 -0.6326 -0.0759
vn -0.6332 0.7715 -0.0624
vn -0.8786 -0.4696 -0.0865
vn -0.4709 0.8810 -0.0464
vn -0.9527 -0.2890 -0.0938
vn -0.2902 0.9565 -0.0286
vn -0.9904 -0.0975 -0.0976
vn -0.0980 -0.9951 -0.0097
vn -0.0980 0.9951 -0.0097
vn -0.9904 0.0975 -0.0976
vn -0.2902 -0.9565 -0.0286
vn -0.9527 0.2890 -0.0938
vn -0.4709 -0.8810 -0.0464
vn -0.8786 0.4696 -0.0865
vn -0.6332 -0.7715 -0.0624
vn -0.0942 0.9951 -0.0286
vn -0.9524 0.0975 -0.2889
vn -0.2790 -0.9565 -0.0846
vn -0.9161 0.2890 -0.2779
vn -0.4528 -0.8810 -0.1374
vn -0.8448 0.4696 -0.2563
vn -0.6088 -0.7715 -0.1847
vn -0.7412 0.6326 -0.2248
vn -0.7412 -0.6326 -0.2248
vn -0.6088 0.7715 -0.1847
vn -0.8448 -0.4696 -0.2563
vn -0.4528 0.8810 -0.1374
vn -0.9161 -0.2890 -0.2779
vn -0.2790 0.9565 -0.0846
vn -0.9524 -0.0975 -0.2889
vn -0.0942 -0.9951 -0.0286
vn -0.5611 0.7715 -0.2999
vn -0.7786 -0.4696 -0.4162
vn -0.4173 0.8810 -0.2231
vn -0.8443 -0.2890 -0.4513
vn -0.2571 0.9565 -0.1374
vn -0.8777 -0.0975 -0.4691
vn -0.0869 -0.9951 -0.0464
vn -0.0869 0.9951 -0.0464
vn -0.8777 0.0975 -0.4691
vn -0.2571 -0.9565 -0.1374
vn -0.8443 0.2890 -0.4513
vn -0.4173 -0.8810 -0.2231
vn -0.7786 0.4696 -0.4162
vn -0.5611 -0.7715 -0.2999
vn -0.6831 0.6326 -0.3651
vn -0.6831 -0.6326 -0.3651
vn -0.2254 -0.9565 -0.1850
vn -0.7400 0.2890 -0.6073
vn -0.3658 -0.8810 -0.3002
vn -0.6825 0.4696 -0.5601
vn -0.4918 -0.7715 -0.4036
vn -0.5987 0.6326 -0.4913
vn -0.5987 -0.6326 -0.4913
vn -0.4918 0.7715 -0.4036
vn -0.6825 -0.4696 -0.5601
vn -0.3658 0.8810 -0.3002
vn -0.7400 -0.2890 -0.6073
vn -0.2254 0.9565 -0.1850
vn -0.7693 -0.0975 -0.6314
vn -0.0761 -0.9951 -0.0625
vn -0.0761 0.9951 -0.0625
vn -0.7693 0.0975 -0.6314
vn -0.5601 -0.4696 -0.6825
vn -0.3002 0.8810 -0.3658
vn -0.6073 -0.2890 -0.7400
vn -0.1850 0.9565 -0.2254
vn -0.6314 -0.0975 -0.7693
vn -0.0625 -0.9951 -0.0761
vn -0.0625 0.9951 -0.0761
vn -0.6314 0.0975 -0.7693
vn -0.1850 -0.9565 -0.2254
vn -0.6073 0.2890 -0.7400
vn -0.3002 -0.8810 -0.3658
vn -0.5601 0.4696 -0.6825
vn -0.4036 -0.7715 -0.4918
vn -0.4913 0.6326 -0.5987
vn -0.4913 -0.6326 -0.5987
vn -0.4036 0.7715 -0.4918
vn -0.4513 0.2890 -0.8443
vn -0.2230 -0.8810 -0.4173
vn -0.4162 0.4696 -0.7786
vn -0.2999 -0.7715 -0.5611
vn -0.3651 0.6326 -0.6831
vn -0.3651 -0.6326 -0.6831
vn -0.2999 0.7715 -0.5611
vn -0.4162 -0.4696 -0.7786
vn -0.2230 0.8810 -0.4173
vn -0.4513 -0.2890 -0.8443
vn -0.1374 0.9565 -0.2571
vn -0.4691 -0.0975 -0.8777
vn -0.0464 -0.9951 -0.0869
vn -0.0464 0.9951 -0.0869
vn -0.4691 0.0975 -0.8777
vn -0.1374 -0.9565 -0.2571
vn -0.1374 0.8810 -0.4528
vn -0.2779 -0.2890 -0.9161
vn -0.0846 0.9565 -0.2790
vn -0.2889 -0.0975 -0.9524
vn -0.0286 -0.9951 -0.0942
vn -0.0286 0.9951 -0.0942
vn -0.2889 0.0975 -0.9524
vn -0.0846 -0.9565 -0.2790
vn -0.2779 0.2890 -0.9161
vn -0.1374 -0.8810 -0.4528
vn -0.2563 0.4696 -0.8448
vn -0.1847 -0.7715 -0.6088
vn -0.2248 0.6326 -0.7412
vn -0.2248 -0.6326 -0.7412
vn -0.1847 0.7715 -0.6088
vn -0.2563 -0.4696 -0.8448
vn -0.0464 -0.8810 -0.4709
vn -0.0865 0.4696 -0.8786
vn -0.0624 -0.7715 -0.6332
vn -0.0759 0.6326 -0.7708
vn -0.0759 -0.6326 -0.7708
vn -0.0624 0.7715 -0.6332
vn -0.0865 -0.4696 -0.8786
vn -0.0464 0.8810 -0.4709
vn -0.0938 -0.2890 -0.9527
vn -0.0286 0.9565 -0.2902
vn -0.0976 -0.0975 -0.9904
vn -0.0097 -0.9951 -0.0980
vn -0.0097 0.9951 -0.0980
vn -0.0976 0.0975 -0.9904
vn -0.0286 -0.9565 -0.2902
vn -0.0938 0.2890 -0.9527
vt 0.750000 0.375000
vt 0.718750 0.375000
vt 0.718750 0.437500
vt 0.750000 0.437500
vt 0.750000 0.812500
vt 0.718750 0.812500
vt 0.718750 0.875000
vt 0.750000 0.875000
vt 0.750000 0.312500
vt 0.718750 0.312500
vt 0.750000 0.750000
vt 0.718750 0.750000
vt 0.750000 0.250000
vt 0.718750 0.250000
vt 0.750000 0.687500
vt 0.718750 0.687500
vt 0.750000 0.187500
vt 0.718750 0.187500
vt 0.750000 0.625000
vt 0.718750 0.625000
vt 0.750000 0.125000
vt 0.718750 0.125000
vt 0.750000 0.562500
vt 0.718750 0.562500
vt 0.750000 0.062500
vt 0.718750 0.062500
vt 0.750000 0.500000
vt 0.718750 0.500000
vt 0.750000 0.937500
vt 0.718750 0.937500
vt 0.734375 1.000000
vt 0.734375 0.000000
vt 0.687500 0.437500
vt 0.687500 0.500000
vt 0.687500 0.875000
vt 0.687500 0.937500
vt 0.687500 0.375000
vt 0.687500 0.812500
vt 0.687500 0.312500
vt 0.687500 0.750000
vt 0.687500 0.250000
vt 0.687500 0.687500
vt 0.687500 0.187500
vt 0.687500 0.625000
vt 0.687500 0.125000
vt 0.687500 0.562500
vt 0.687500 0.062500
vt 0.703125 1.000000
vt 0.703125 0.000000
vt 0.656250 0.187500
vt 0.656250 0.250000
vt 0.656250 0.625000
vt 0.656250 0.687500
vt 0.656250 0.125000
vt 0.656250 0.562500
vt 0.656250 0.062500
vt 0.656250 0.500000
vt 0.656250 0.937500
vt 0.671875 1.000000
vt 0.671875 0.000000
vt 0.656250 0.437500
vt 0.656250 0.875000
vt 0.656250 0.375000
vt 0.656250 0.812500
vt 0.656250 0.312500
vt 0.656250 0.750000
vt 0.625000 0.875000
vt 0.625000 0.937500
vt 0.625000 0.375000
vt 0.625000 0.437500
vt 0.625000 0.812500
vt 0.625000 0.312500
vt 0.625000 0.750000
vt 0.625000 0.250000
vt 0.625000 0.687500
vt 0.625000 0.187500
vt 0.625000 0.625000
vt 0.625000 0.125000
vt 0.625000 0.562500
vt 0.625000 0.062500
vt 0.625000 0.500000
vt 0.640625 1.000000
vt 0.640625 0.000000
vt 0.593750 0.625000
vt 0.593750 0.687500
vt 0.593750 0.125000
vt 0.593750 0.187500
vt 0.593750 0.562500
vt 0.593750 0.062500
vt 0.593750 0.500000
vt 0.593750 0.937500
vt 0.609375 1.000000
vt 0.609375 0.000000
vt 0.593750 0.437500
vt 0.593750 0.875000
vt 0.593750 0.375000
vt 0.593750 0.812500
vt 0.593750 0.312500
vt 0.593750 0.750000
vt 0.593750 0.250000
vt 0.562500 0.375000
vt 0.562500 0.437500
vt 0.562500 0.812500
vt 0.562500 0.875000
vt 0.562500 0.312500
vt 0.562500 0.750000
vt 0.562500 0.250000
vt 0.562500 0.687500
vt 0.562500 0.187500
vt 0.562500 0.625000
vt 0.562500 0.125000
vt 0.562500 0.562500
vt 0.562500 0.062500
vt 0.562500 0.500000
vt 0.562500 0.937500
vt 0.578125 1.000000
vt 0.578125 0.000000
vt 0.531250 0.125000
vt 0.531250 0.187500
vt 0.531250 0.562500
vt 0.531250 0.625000
vt 0.531250 0.062500
vt 0.531250 0.500000
vt 0.531250 0.937500
vt 0.546875 1.000000
vt 0.546875 0.000000
vt 0.531250 0.437500
vt 0.531250 0.875000
vt 0.531250 0.375000
vt 0.531250 0.812500
vt 0.531250 0.312500
vt 0.531250 0.750000
vt 0.531250 0.250000
vt 0.531250 0.687500
vt 0.500000 0.312500
vt 0.500000 0.375000
vt 0.500000 0.750000
vt 0.500000 0.812500
vt 0.500000 0.250000
vt 0.500000 0.687500
vt 0.500000 0.187500
vt 0.500000 0.625000
vt 0.500000 0.125000
vt 0.500000 0.562500
vt 0.500000 0.062500
vt 0.500000 0.500000
vt 0.500000 0.937500
vt 0.515625 1.000000
vt 0.515625 0.000000
vt 0.500000 0.437500
vt 0.500000 0.875000
vt 0.468750 0.062500
vt 0.468750 0.125000
vt 0.468750 0.500000
vt 0.468750 0.562500
vt 0.468750 0.937500
vt 0.484375 1.000000
vt 0.484375 0.000000
vt 0.468750 0.437500
vt 0.468750 0.875000
vt 0.468750 0.375000
vt 0.468750 0.812500
vt 0.468750 0.312500
vt 0.468750 0.750000
vt 0.468750 0.250000
vt 0.468750 0.687500
vt 0.468750 0.187500
vt 0.468750 0.625000
vt 0.437500 0.750000
vt 0.437500 0.812500
vt 0.437500 0.250000
vt 0.437500 0.312500
vt 0.437500 0.687500
vt 0.437500 0.187500
vt 0.437500 0.625000
vt 0.437500 0.125000
vt 0.437500 0.562500
vt 0.437500 0.062500
vt 0.437500 0.500000
vt 0.437500 0.937500
vt 0.453125 1.000000
vt 0.453125 0.000000
vt 0.437500 0.437500
vt 0.437500 0.875000
vt 0.437500 0.375000
vt 0.406250 0.500000
vt 0.406250 0.562500
vt 0.406250 0.937500
vt 0.421875 1.000000
vt 0.421875 0.000000
vt 0.406250 0.062500
vt 0.406250 0.437500
vt 0.406250 0.875000
vt 0.406250 0.375000
vt 0.406250 0.812500
vt 0.406250 0.312500
vt 0.406250 0.750000
vt 0.406250 0.250000
vt 0.406250 0.687500
vt 0.406250 0.187500
vt 0.406250 0.625000
vt 0.406250 0.125000
vt 0.375000 0.250000
vt 0.375000 0.312500
vt 0.375000 0.687500
vt 0.375000 0.750000
vt 0.375000 0.187500
vt 0.375000 0.625000
vt 0.375000 0.125000
vt 0.375000 0.562500
vt 0.375000 0.062500
vt 0.375000 0.500000
vt 0.375000 0.937500
vt 0.390625 1.000000
vt 0.390625 0.000000
vt 0.375000 0.437500
vt 0.375000 0.875000
vt 0.375000 0.375000
vt 0.375000 0.812500
vt 0.343750 0.937500
vt 0.359375 1.000000
vt 0.359375 0.000000
vt 0.343750 0.062500
vt 0.343750 0.437500
vt 0.343750 0.500000
vt 0.343750 0.875000
vt 0.343750 0.375000
vt 0.343750 0.812500
vt 0.343750 0.312500
vt 0.343750 0.750000
vt 0.343750 0.250000
vt 0.343750 0.687500
vt 0.343750 0.187500
vt 0.343750 0.625000
vt 0.343750 0.125000
vt 0.343750 0.562500
vt 0.312500 0.687500
vt 0.312500 0.750000
vt 0.312500 0.187500
vt 0.312500 0.250000
vt 0.312500 0.625000
vt 0.312500 0.125000
vt 0.312500 0.562500
vt 0.312500 0.062500
vt 0.312500 0.500000
vt 0.312500 0.937500
vt 0.328125 1.000000
vt 0.328125 0.000000
vt 0.312500 0.437500
vt 0.312500 0.875000
vt 0.312500 0.375000
vt 0.312500 0.812500
vt 0.312500 0.312500
vt 0.281250 0.437500
vt 0.281250 0.500000
vt 0.281250 0.875000
vt 0.281250 0.937500
vt 0.281250 0.375000
vt 0.281250 0.812500
vt 0.281250 0.312500
vt 0.281250 0.750000
vt 0.281250 0.250000
vt 0.281250 0.687500
vt 0.281250 0.187500
vt 0.281250 0.625000
vt 0.281250 0.125000
vt 0.281250 0.562500
vt 0.281250 0.062500
vt 0.296875 1.000000
vt 0.296875 0.000000
vt 0.250000 0.187500
vt 0.250000 0.250000
vt 0.250000 0.625000
vt 0.250000 0.687500
vt 0.250000 0.125000
vt 0.250000 0.562500
vt 0.250000 0.062500
vt 0.250000 0.500000
vt 0.250000 0.937500
vt 0.265625 1.000000
vt 0.265625 0.000000
vt 0.250000 0.437500
vt 0.250000 0.875000
vt 0.250000 0.375000
vt 0.250000 0.812500
vt 0.250000 0.312500
vt 0.250000 0.750000
vt 0.218750 0.375000
vt 0.218750 0.437500
vt 0.218750 0.812500
vt 0.218750 0.875000
vt 0.218750 0.312500
vt 0.218750 0.750000
vt 0.218750 0.250000
vt 0.218750 0.687500
vt 0.218750 0.187500
vt 0.218750 0.625000
vt 0.218750 0.125000
vt 0.218750 0.562500
vt 0.218750 0.062500
vt 0.218750 0.500000
vt 0.218750 0.937500
vt 0.234375 1.000000
vt 0.234375 0.000000
vt 0.187500 0.125000
vt 0.187500 0.187500
vt 0.187500 0.562500
vt 0.187500 0.625000
vt 0.187500 0.062500
vt 0.187500 0.500000
vt 0.187500 0.937500
vt 0.203125 1.000000
vt 0.203125 0.000000
vt 0.187500 0.437500
vt 0.187500 0.875000
vt 0.187500 0.375000
vt 0.187500 0.812500
vt 0.187500 0.312500
vt 0.187500 0.750000
vt 0.187500 0.250000
vt 0.187500 0.687500
vt 0.156250 0.812500
vt 0.156250 0.875000
vt 0.156250 0.312500
vt 0.156250 0.375000
vt 0.156250 0.750000
vt 0.156250 0.250000
vt 0.156250 0.687500
vt 0.156250 0.187500
vt 0.156250 0.625000
vt 0.156250 0.125000
vt 0.156250 0.562500
vt 0.156250 0.062500
vt 0.156250 0.500000
vt 0.156250 0.937500
vt 0.171875 1.000000
vt 0.171875 0.000000
vt 0.156250 0.437500
vt 0.125000 0.562500
vt 0.125000 0.625000
vt 0.125000 0.062500
vt 0.125000 0.125000
vt 0.125000 0.500000
vt 0.125000 0.937500
vt 0.140625 1.000000
vt 0.140625 0.000000
vt 0.125000 0.437500
vt 0.125000 0.875000
vt 0.125000 0.375000
vt 0.125000 0.812500
vt 0.125000 0.312500
vt 0.125000 0.750000
vt 0.125000 0.250000
vt 0.125000 0.687500
vt 0.125000 0.187500
vt 0.093750 0.312500
vt 0.093750 0.375000
vt 0.093750 0.750000
vt 0.093750 0.812500
vt 0.093750 0.250000
vt 0.093750 0.687500
vt 0.093750 0.187500
vt 0.093750 0.625000
vt 0.093750 0.125000
vt 0.093750 0.562500
vt 0.093750 0.062500
vt 0.093750 0.500000
vt 0.093750 0.937500
vt 0.109375 1.000000
vt 0.109375 0.000000
vt 0.093750 0.437500
vt 0.093750 0.875000
vt 0.062500 0.062500
vt 0.062500 0.125000
vt 0.062500 0.500000
vt 0.062500 0.562500
vt 0.062500 0.937500
vt 0.078125 1.000000
vt 0.078125 0.000000
vt 0.062500 0.437500
vt 0.062500 0.875000
vt 0.062500 0.375000
vt 0.062500 0.812500
vt 0.062500 0.312500
vt 0.062500 0.750000
vt 0.062500 0.250000
vt 0.062500 0.687500
vt 0.062500 0.187500
vt 0.062500 0.625000
vt 0.031250 0.750000
vt 0.031250 0.812500
vt 0.031250 0.250000
vt 0.031250 0.312500
vt 0.031250 0.687500
vt 0.031250 0.187500
vt 0.031250 0.625000
vt 0.031250 0.125000
vt 0.031250 0.562500
vt 0.031250 0.062500
vt 0.031250 0.500000
vt 0.031250 0.937500
vt 0.046875 1.000000
vt 0.046875 0.000000
vt 0.031250 0.437500
vt 0.031250 0.875000
vt 0.031250 0.375000
vt 0.000000 0.500000
vt 0.000000 0.562500
vt 0.000000 0.937500
vt 0.015625 1.000000
vt 0.015625 0.000000
vt 0.000000 0.062500
vt 0.000000 0.437500
vt 0.000000 0.875000
vt 0.000000 0.375000
vt 0.000000 0.812500
vt 0.000000 0.312500
vt 0.000000 0.750000
vt 0.000000 0.250000
vt 0.000000 0.687500
vt 0.000000 0.187500
vt 0.000000 0.625000
vt 0.000000 0.125000
vt 1.000000 0.250000
vt 0.968750 0.250000
vt 0.968750 0.312500
vt 1.000000 0.312500
vt 1.000000 0.687500
vt 0.968750 0.687500
vt 0.968750 0.750000
vt 1.000000 0.750000
vt 1.000000 0.187500
vt 0.968750 0.187500
vt 1.000000 0.625000
vt 0.968750 0.625000
vt 1.000000 0.125000
vt 0.968750 0.125000
vt 1.000000 0.562500
vt 0.968750 0.562500
vt 1.000000 0.062500
vt 0.968750 0.062500
vt 1.000000 0.500000
vt 0.968750 0.500000
vt 1.000000 0.937500
vt 0.968750 0.937500
vt 0.984375 1.000000
vt 0.984375 0.000000
vt 1.000000 0.437500
vt 0.968750 0.437500
vt 1.000000 0.875000
vt 0.968750 0.875000
vt 1.000000 0.375000
vt 0.968750 0.375000
vt 1.000000 0.812500
vt 0.968750 0.812500
vt 0.953125 0.000000
vt 0.937500 0.062500
vt 0.937500 0.437500
vt 0.937500 0.500000
vt 0.937500 0.875000
vt 0.937500 0.937500
vt 0.937500 0.375000
vt 0.937500 0.812500
vt 0.937500 0.312500
vt 0.937500 0.750000
vt 0.937500 0.250000
vt 0.937500 0.687500
vt 0.937500 0.187500
vt 0.937500 0.625000
vt 0.937500 0.125000
vt 0.937500 0.562500
vt 0.953125 1.000000
vt 0.906250 0.187500
vt 0.906250 0.250000
vt 0.906250 0.625000
vt 0.906250 0.687500
vt 0.906250 0.125000
vt 0.906250 0.562500
vt 0.906250 0.062500
vt 0.906250 0.500000
vt 0.906250 0.937500
vt 0.921875 1.000000
vt 0.921875 0.000000
vt 0.906250 0.437500
vt 0.906250 0.875000
vt 0.906250 0.375000
vt 0.906250 0.812500
vt 0.906250 0.312500
vt 0.906250 0.750000
vt 0.875000 0.875000
vt 0.875000 0.937500
vt 0.875000 0.375000
vt 0.875000 0.437500
vt 0.875000 0.812500
vt 0.875000 0.312500
vt 0.875000 0.750000
vt 0.875000 0.250000
vt 0.875000 0.687500
vt 0.875000 0.187500
vt 0.875000 0.625000
vt 0.875000 0.125000
vt 0.875000 0.562500
vt 0.875000 0.062500
vt 0.875000 0.500000
vt 0.890625 1.000000
vt 0.890625 0.000000
vt 0.843750 0.625000
vt 0.843750 0.687500
vt 0.843750 0.125000
vt 0.843750 0.187500
vt 0.843750 0.562500
vt 0.843750 0.062500
vt 0.843750 0.500000
vt 0.843750 0.937500
vt 0.859375 1.000000
vt 0.859375 0.000000
vt 0.843750 0.437500
vt 0.843750 0.875000
vt 0.843750 0.375000
vt 0.843750 0.812500
vt 0.843750 0.312500
vt 0.843750 0.750000
vt 0.843750 0.250000
vt 0.812500 0.375000
vt 0.812500 0.437500
vt 0.812500 0.812500
vt 0.812500 0.875000
vt 0.812500 0.312500
vt 0.812500 0.750000
vt 0.812500 0.250000
vt 0.812500 0.687500
vt 0.812500 0.187500
vt 0.812500 0.625000
vt 0.812500 0.125000
vt 0.812500 0.562500
vt 0.812500 0.062500
vt 0.812500 0.500000
vt 0.812500 0.937500
vt 0.828125 1.000000
vt 0.828125 0.000000
vt 0.781250 0.125000
vt 0.781250 0.187500
vt 0.781250 0.562500
vt 0.781250 0.625000
vt 0.781250 0.062500
vt 0.781250 0.500000
vt 0.781250 0.937500
vt 0.796875 1.000000
vt 0.796875 0.000000
vt 0.781250 0.437500
vt 0.781250 0.875000
vt 0.781250 0.375000
vt 0.781250 0.812500
vt 0.781250 0.312500
vt 0.781250 0.750000
vt 0.781250 0.250000
vt 0.781250 0.687500
vt 0.765625 1.000000
vt 0.765625 0.000000
s 0
usemtl Material
f 478/1/1 16/2/1 15/3/1 5/4/1
f 1/5/2 9/6/2 8/7/2 475/8/2
f 6/9/3 17/10/3 16/2/3 478/1/3
f 476/11/4 10/12/4 9/6/4 1/5/4
f 479/13/5 18/14/5 17/10/5 6/9/5
f 2/15/6 11/16/6 10/12/6 476/11/6
f 480/17/7 19/18/7 18/14/7 479/13/7
f 477/19/8 12/20/8 11/16/8 2/15/8
f 481/21/9 20/22/9 19/18/9 480/17/9
f 3/23/10 13/24/10 12/20/10 477/19/10
f 482/25/11 21/26/11 20/22/11 481/21/11
f 4/27/12 14/28/12 13/24/12 3/23/12
f 474/29/13 7/30/13 82/31/13
f 308/32/14 21/26/14 482/25/14
f 5/4/15 15/3/15 14/28/15 4/27/15
f 475/8/16 8/7/16 7/30/16 474/29/16
f 15/3/17 30/33/17 29/34/17 14/28/17
f 8/7/18 23/35/18 22/36/18 7/30/18
f 16/2/19 31/37/19 30/33/19 15/3/19
f 9/6/20 24/38/20 23/35/20 8/7/20
f 17/10/21 32/39/21 31/37/21 16/2/21
f 10/12/22 25/40/22 24/38/22 9/6/22
f 18/14/23 33/41/23 32/39/23 17/10/23
f 11/16/24 26/42/24 25/40/24 10/12/24
f 19/18/25 34/43/25 33/41/25 18/14/25
f 12/20/26 27/44/26 26/42/26 11/16/26
f 20/22/27 35/45/27 34/43/27 19/18/27
f 13/24/28 28/46/28 27/44/28 12/20/28
f 21/26/29 36/47/29 35/45/29 20/22/29
f 14/28/30 29/34/30 28/46/30 13/24/30
f 7/30/31 22/36/31 82/48/31
f 308/49/32 36/47/32 21/26/32
f 34/43/33 49/50/33 48/51/33 33/41/33
f 27/44/34 42/52/34 41/53/34 26/42/34
f 35/45/35 50/54/35 49/50/35 34/43/35
f 28/46/36 43/55/36 42/52/36 27/44/36
f 36/47/37 51/56/37 50/54/37 35/45/37
f 29/34/38 44/57/38 43/55/38 28/46/38
f 22/36/39 37/58/39 82/59/39
f 308/60/40 51/56/40 36/47/40
f 30/33/41 45/61/41 44/57/41 29/34/41
f 23/35/42 38/62/42 37/58/42 22/36/42
f 31/37/43 46/63/43 45/61/43 30/33/43
f 24/38/44 39/64/44 38/62/44 23/35/44
f 32/39/45 47/65/45 46/63/45 31/37/45
f 25/40/46 40/66/46 39/64/46 24/38/46
f 33/41/47 48/51/47 47/65/47 32/39/47
f 26/42/48 41/53/48 40/66/48 25/40/48
f 38/62/49 53/67/49 52/68/49 37/58/49
f 46/63/50 61/69/50 60/70/50 45/61/50
f 39/64/51 54/71/51 53/67/51 38/62/51
f 47/65/52 62/72/52 61/69/52 46/63/52
f 40/66/53 55/73/53 54/71/53 39/64/53
f 48/51/54 63/74/54 62/72/54 47/65/54
f 41/53/55 56/75/55 55/73/55 40/66/55
f 49/50/56 64/76/56 63/74/56 48/51/56
f 42/52/57 57/77/57 56/75/57 41/53/57
f 50/54/58 65/78/58 64/76/58 49/50/58
f 43/55/59 58/79/59 57/77/59 42/52/59
f 51/56/60 66/80/60 65/78/60 50/54/60
f 44/57/61 59/81/61 58/79/61 43/55/61
f 37/58/62 52/68/62 82/82/62
f 308/83/63 66/80/63 51/56/63
f 45/61/64 60/70/64 59/81/64 44/57/64
f 57/77/65 72/84/65 71/85/65 56/75/65
f 65/78/66 80/86/66 79/87/66 64/76/66
f 58/79/67 73/88/67 72/84/67 57/77/67
f 66/80/68 81/89/68 80/86/68 65/78/68
f 59/81/69 74/90/69 73/88/69 58/79/69
f 52/68/70 67/91/70 82/92/70
f 308/93/71 81/89/71 66/80/71
f 60/70/72 75/94/72 74/90/72 59/81/72
f 53/67/73 68/95/73 67/91/73 52/68/73
f 61/69/74 76/96/74 75/94/74 60/70/74
f 54/71/75 69/97/75 68/95/75 53/67/75
f 62/72/76 77/98/76 76/96/76 61/69/76
f 55/73/77 70/99/77 69/97/77 54/71/77
f 63/74/78 78/100/78 77/98/78 62/72/78
f 56/75/79 71/85/79 70/99/79 55/73/79
f 64/76/80 79/87/80 78/100/80 63/74/80
f 76/96/81 92/101/81 91/102/81 75/94/81
f 69/97/82 85/103/82 84/104/82 68/95/82
f 77/98/83 93/105/83 92/101/83 76/96/83
f 70/99/84 86/106/84 85/103/84 69/97/84
f 78/100/85 94/107/85 93/105/85 77/98/85
f 71/85/86 87/108/86 86/106/86 70/99/86
f 79/87/87 95/109/87 94/107/87 78/100/87
f 72/84/88 88/110/88 87/108/88 71/85/88
f 80/86/89 96/111/89 95/109/89 79/87/89
f 73/88/90 89/112/90 88/110/90 72/84/90
f 81/89/91 97/113/91 96/111/91 80/86/91
f 74/90/92 90/114/92 89/112/92 73/88/92
f 67/91/93 83/115/93 82/116/93
f 308/117/94 97/113/94 81/89/94
f 75/94/95 91/102/95 90/114/95 74/90/95
f 68/95/96 84/104/96 83/115/96 67/91/96
f 96/111/97 111/118/97 110/119/97 95/109/97
f 89/112/98 104/120/98 103/121/98 88/110/98
f 97/113/99 112/122/99 111/118/99 96/111/99
f 90/114/100 105/123/100 104/120/100 89/112/100
f 83/115/101 98/124/101 82/125/101
f 308/126/102 112/122/102 97/113/102
f 91/102/103 106/127/103 105/123/103 90/114/103
f 84/104/104 99/128/104 98/124/104 83/115/104
f 92/101/105 107/129/105 106/127/105 91/102/105
f 85/103/106 100/130/106 99/128/106 84/104/106
f 93/105/107 108/131/107 107/129/107 92/101/107
f 86/106/108 101/132/108 100/130/108 85/103/108
f 94/107/109 109/133/109 108/131/109 93/105/109
f 87/108/110 102/134/110 101/132/110 86/106/110
f 95/109/111 110/119/111 109/133/111 94/107/111
f 88/110/112 103/121/112 102/134/112 87/108/112
f 108/131/113 123/135/113 122/136/113 107/129/113
f 101/132/114 116/137/114 115/138/114 100/130/114
f 109/133/115 124/139/115 123/135/115 108/131/115
f 102/134/116 117/140/116 116/137/116 101/132/116
f 110/119/117 125/141/117 124/139/117 109/133/117
f 103/121/118 118/142/118 117/140/118 102/134/118
f 111/118/119 126/143/119 125/141/119 110/119/119
f 104/120/120 119/144/120 118/142/120 103/121/120
f 112/122/121 127/145/121 126/143/121 111/118/121
f 105/123/122 120/146/122 119/144/122 104/120/122
f 98/124/123 113/147/123 82/148/123
f 308/149/124 127/145/124 112/122/124
f 106/127/125 121/150/125 120/146/125 105/123/125
f 99/128/126 114/151/126 113/147/126 98/124/126
f 107/129/127 122/136/127 121/150/127 106/127/127
f 100/130/128 115/138/128 114/151/128 99/128/128
f 127/145/129 142/152/129 141/153/129 126/143/129
f 120/146/130 135/154/130 134/155/130 119/144/130
f 113/147/131 128/156/131 82/157/131
f 308/158/132 142/152/132 127/145/132
f 121/150/133 136/159/133 135/154/133 120/146/133
f 114/151/134 129/160/134 128/156/134 113/147/134
f 122/136/135 137/161/135 136/159/135 121/150/135
f 115/138/136 130/162/136 129/160/136 114/151/136
f 123/135/137 138/163/137 137/161/137 122/136/137
f 116/137/138 131/164/138 130/162/138 115/138/138
f 124/139/139 139/165/139 138/163/139 123/135/139
f 117/140/140 132/166/140 131/164/140 116/137/140
f 125/141/141 140/167/141 139/165/141 124/139/141
f 118/142/142 133/168/142 132/166/142 117/140/142
f 126/143/143 141/153/143 140/167/143 125/141/143
f 119/144/144 134/155/144 133/168/144 118/142/144
f 131/164/145 146/169/145 145/170/145 130/162/145
f 139/165/146 154/171/146 153/172/146 138/163/146
f 132/166/147 147/173/147 146/169/147 131/164/147
f 140/167/148 155/174/148 154/171/148 139/165/148
f 133/168/149 148/175/149 147/173/149 132/166/149
f 141/153/150 156/176/150 155/174/150 140/167/150
f 134/155/151 149/177/151 148/175/151 133/168/151
f 142/152/152 157/178/152 156/176/152 141/153/152
f 135/154/153 150/179/153 149/177/153 134/155/153
f 128/156/154 143/180/154 82/181/154
f 308/182/155 157/178/155 142/152/155
f 136/159/156 151/183/156 150/179/156 135/154/156
f 129/160/157 144/184/157 143/180/157 128/156/157
f 137/161/158 152/185/158 151/183/158 136/159/158
f 130/162/159 145/170/159 144/184/159 129/160/159
f 138/163/160 153/172/160 152/185/160 137/161/160
f 150/179/161 165/186/161 164/187/161 149/177/161
f 143/180/162 158/188/162 82/189/162
f 308/190/163 172/191/163 157/178/163
f 151/183/164 166/192/164 165/186/164 150/179/164
f 144/184/165 159/193/165 158/188/165 143/180/165
f 152/185/166 167/194/166 166/192/166 151/183/166
f 145/170/167 160/195/167 159/193/167 144/184/167
f 153/172/168 168/196/168 167/194/168 152/185/168
f 146/169/169 161/197/169 160/195/169 145/170/169
f 154/171/170 169/198/170 168/196/170 153/172/170
f 147/173/171 162/199/171 161/197/171 146/169/171
f 155/174/172 170/200/172 169/198/172 154/171/172
f 148/175/173 163/201/173 162/199/173 147/173/173
f 156/176/174 171/202/174 170/200/174 155/174/174
f 149/177/175 164/187/175 163/201/175 148/175/175
f 157/178/176 172/191/176 171/202/176 156/176/176
f 169/198/177 184/203/177 183/204/177 168/196/177
f 162/199/178 177/205/178 176/206/178 161/197/178
f 170/200/179 185/207/179 184/203/179 169/198/179
f 163/201/180 178/208/180 177/205/180 162/199/180
f 171/202/181 186/209/181 185/207/181 170/200/181
f 164/187/182 179/210/182 178/208/182 163/201/182
f 172/191/183 187/211/183 186/209/183 171/202/183
f 165/186/184 180/212/184 179/210/184 164/187/184
f 158/188/185 173/213/185 82/214/185
f 308/215/186 187/211/186 172/191/186
f 166/192/187 181/216/187 180/212/187 165/186/187
f 159/193/188 174/217/188 173/213/188 158/188/188
f 167/194/189 182/218/189 181/216/189 166/192/189
f 160/195/190 175/219/190 174/217/190 159/193/190
f 168/196/191 183/204/191 182/218/191 167/194/191
f 161/197/192 176/206/192 175/219/192 160/195/192
f 173/213/193 188/220/193 82/221/193
f 308/222/194 202/223/194 187/211/194
f 181/216/195 196/224/195 195/225/195 180/212/195
f 174/217/196 189/226/196 188/220/196 173/213/196
f 182/218/197 197/227/197 196/224/197 181/216/197
f 175/219/198 190/228/198 189/226/198 174/217/198
f 183/204/199 198/229/199 197/227/199 182/218/199
f 176/206/200 191/230/200 190/228/200 175/219/200
f 184/203/201 199/231/201 198/229/201 183/204/201
f 177/205/202 192/232/202 191/230/202 176/206/202
f 185/207/203 200/233/203 199/231/203 184/203/203
f 178/208/204 193/234/204 192/232/204 177/205/204
f 186/209/205 201/235/205 200/233/205 185/207/205
f 179/210/206 194/236/206 193/234/206 178/208/206
f 187/211/207 202/223/207 201/235/207 186/209/207
f 180/212/208 195/225/208 194/236/208 179/210/208
f 192/232/209 207/237/209 206/238/209 191/230/209
f 200/233/210 215/239/210 214/240/210 199/231/210
f 193/234/211 208/241/211 207/237/211 192/232/211
f 201/235/212 216/242/212 215/239/212 200/233/212
f 194/236/213 209/243/213 208/241/213 193/234/213
f 202/223/214 217/244/214 216/242/214 201/235/214
f 195/225/215 210/245/215 209/243/215 194/236/215
f 188/220/216 203/246/216 82/247/216
f 308/248/217 217/244/217 202/223/217
f 196/224/218 211/249/218 210/245/218 195/225/218
f 189/226/219 204/250/219 203/246/219 188/220/219
f 197/227/220 212/251/220 211/249/220 196/224/220
f 190/228/221 205/252/221 204/250/221 189/226/221
f 198/229/222 213/253/222 212/251/222 197/227/222
f 191/230/223 206/238/223 205/252/223 190/228/223
f 199/231/224 214/240/224 213/253/224 198/229/224
f 211/249/225 226/254/225 225/255/225 210/245/225
f 204/250/226 219/256/226 218/257/226 203/246/226
f 212/251/227 227/258/227 226/254/227 211/249/227
f 205/252/228 220/259/228 219/256/228 204/250/228
f 213/253/229 228/260/229 227/258/229 212/251/229
f 206/238/230 221/261/230 220/259/230 205/252/230
f 214/240/231 229/262/231 228/260/231 213/253/231
f 207/237/232 222/263/232 221/261/232 206/238/232
f 215/239/233 230/264/233 229/262/233 214/240/233
f 208/241/234 223/265/234 222/263/234 207/237/234
f 216/242/235 231/266/235 230/264/235 215/239/235
f 209/243/236 224/267/236 223/265/236 208/241/236
f 217/244/237 232/268/237 231/266/237 216/242/237
f 210/245/238 225/255/238 224/267/238 209/243/238
f 203/246/239 218/257/239 82/269/239
f 308/270/240 232/268/240 217/244/240
f 230/264/241 245/271/241 244/272/241 229/262/241
f 223/265/242 238/273/242 237/274/242 222/263/242
f 231/266/243 246/275/243 245/271/243 230/264/243
f 224/267/244 239/276/244 238/273/244 223/265/244
f 232/268/245 247/277/245 246/275/245 231/266/245
f 225/255/246 240/278/246 239/276/246 224/267/246
f 218/257/247 233/279/247 82/280/247
f 308/281/248 247/277/248 232/268/248
f 226/254/249 241/282/249 240/278/249 225/255/249
f 219/256/250 234/283/250 233/279/250 218/257/250
f 227/258/251 242/284/251 241/282/251 226/254/251
f 220/259/252 235/285/252 234/283/252 219/256/252
f 228/260/253 243/286/253 242/284/253 227/258/253
f 221/261/254 236/287/254 235/285/254 220/259/254
f 229/262/255 244/272/255 243/286/255 228/260/255
f 222/263/256 237/274/256 236/287/256 221/261/256
f 242/284/257 257/288/257 256/289/257 241/282/257
f 235/285/258 250/290/258 249/291/258 234/283/258
f 243/286/259 258/292/259 257/288/259 242/284/259
f 236/287/260 251/293/260 250/290/260 235/285/260
f 244/272/261 259/294/261 258/292/261 243/286/261
f 237/274/262 252/295/262 251/293/262 236/287/262
f 245/271/263 260/296/263 259/294/263 244/272/263
f 238/273/264 253/297/264 252/295/264 237/274/264
f 246/275/265 261/298/265 260/296/265 245/271/265
f 239/276/266 254/299/266 253/297/266 238/273/266
f 247/277/267 262/300/267 261/298/267 246/275/267
f 240/278/268 255/301/268 254/299/268 239/276/268
f 233/279/269 248/302/269 82/303/269
f 308/304/270 262/300/270 247/277/270
f 241/282/271 256/289/271 255/301/271 240/278/271
f 234/283/272 249/291/272 248/302/272 233/279/272
f 261/298/273 276/305/273 275/306/273 260/296/273
f 254/299/274 269/307/274 268/308/274 253/297/274
f 262/300/275 277/309/275 276/305/275 261/298/275
f 255/301/276 270/310/276 269/307/276 254/299/276
f 248/302/277 263/311/277 82/312/277
f 308/313/278 277/309/278 262/300/278
f 256/289/279 271/314/279 270/310/279 255/301/279
f 249/291/280 264/315/280 263/311/280 248/302/280
f 257/288/281 272/316/281 271/314/281 256/289/281
f 250/290/282 265/317/282 264/315/282 249/291/282
f 258/292/283 273/318/283 272/316/283 257/288/283
f 251/293/284 266/319/284 265/317/284 250/290/284
f 259/294/285 274/320/285 273/318/285 258/292/285
f 252/295/286 267/321/286 266/319/286 251/293/286
f 260/296/287 275/306/287 274/320/287 259/294/287
f 253/297/288 268/308/288 267/321/288 252/295/288
f 265/317/289 280/322/289 279/323/289 264/315/289
f 273/318/290 288/324/290 287/325/290 272/316/290
f 266/319/291 281/326/291 280/322/291 265/317/291
f 274/320/292 289/327/292 288/324/292 273/318/292
f 267/321/293 282/328/293 281/326/293 266/319/293
f 275/306/294 290/329/294 289/327/294 274/320/294
f 268/308/295 283/330/295 282/328/295 267/321/295
f 276/305/296 291/331/296 290/329/296 275/306/296
f 269/307/297 284/332/297 283/330/297 268/308/297
f 277/309/298 292/333/298 291/331/298 276/305/298
f 270/310/299 285/334/299 284/332/299 269/307/299
f 263/311/300 278/335/300 82/336/300
f 308/337/301 292/333/301 277/309/301
f 271/314/302 286/338/302 285/334/302 270/310/302
f 264/315/303 279/323/303 278/335/303 263/311/303
f 272/316/304 287/325/304 286/338/304 271/314/304
f 284/332/305 299/339/305 298/340/305 283/330/305
f 292/333/306 307/341/306 306/342/306 291/331/306
f 285/334/307 300/343/307 299/339/307 284/332/307
f 278/335/308 293/344/308 82/345/308
f 308/346/309 307/341/309 292/333/309
f 286/338/310 301/347/310 300/343/310 285/334/310
f 279/323/311 294/348/311 293/344/311 278/335/311
f 287/325/312 302/349/312 301/347/312 286/338/312
f 280/322/313 295/350/313 294/348/313 279/323/313
f 288/324/314 303/351/314 302/349/314 287/325/314
f 281/326/315 296/352/315 295/350/315 280/322/315
f 289/327/316 304/353/316 303/351/316 288/324/316
f 282/328/317 297/354/317 296/352/317 281/326/317
f 290/329/318 305/355/318 304/353/318 289/327/318
f 283/330/319 298/340/319 297/354/319 282/328/319
f 291/331/320 306/342/320 305/355/320 290/329/320
f 303/351/321 319/356/321 318/357/321 302/349/321
f 296/352/322 312/358/322 311/359/322 295/350/322
f 304/353/323 320/360/323 319/356/323 303/351/323
f 297/354/324 313/361/324 312/358/324 296/352/324
f 305/355/325 321/362/325 320/360/325 304/353/325
f 298/340/326 314/363/326 313/361/326 297/354/326
f 306/342/327 322/364/327 321/362/327 305/355/327
f 299/339/328 315/365/328 314/363/328 298/340/328
f 307/341/329 323/366/329 322/364/329 306/342/329
f 300/343/330 316/367/330 315/365/330 299/339/330
f 293/344/331 309/368/331 82/369/331
f 308/370/332 323/366/332 307/341/332
f 301/347/333 317/371/333 316/367/333 300/343/333
f 294/348/334 310/372/334 309/368/334 293/344/334
f 302/349/335 318/357/335 317/371/335 301/347/335
f 295/350/336 311/359/336 310/372/336 294/348/336
f 323/366/337 338/373/337 337/374/337 322/364/337
f 316/367/338 331/375/338 330/376/338 315/365/338
f 309/368/339 324/377/339 82/378/339
f 308/379/340 338/373/340 323/366/340
f 317/371/341 332/380/341 331/375/341 316/367/341
f 310/372/342 325/381/342 324/377/342 309/368/342
f 318/357/343 333/382/343 332/380/343 317/371/343
f 311/359/344 326/383/344 325/381/344 310/372/344
f 319/356/345 334/384/345 333/382/345 318/357/345
f 312/358/346 327/385/346 326/383/346 311/359/346
f 320/360/347 335/386/347 334/384/347 319/356/347
f 313/361/348 328/387/348 327/385/348 312/358/348
f 321/362/349 336/388/349 335/386/349 320/360/349
f 314/363/350 329/389/350 328/387/350 313/361/350
f 322/364/351 337/374/351 336/388/351 321/362/351
f 315/365/352 330/376/352 329/389/352 314/363/352
f 327/385/353 342/390/353 341/391/353 326/383/353
f 335/386/354 350/392/354 349/393/354 334/384/354
f 328/387/355 343/394/355 342/390/355 327/385/355
f 336/388/356 351/395/356 350/392/356 335/386/356
f 329/389/357 344/396/357 343/394/357 328/387/357
f 337/374/358 352/397/358 351/395/358 336/388/358
f 330/376/359 345/398/359 344/396/359 329/389/359
f 338/373/360 353/399/360 352/397/360 337/374/360
f 331/375/361 346/400/361 345/398/361 330/376/361
f 324/377/362 339/401/362 82/402/362
f 308/403/363 353/399/363 338/373/363
f 332/380/364 347/404/364 346/400/364 331/375/364
f 325/381/365 340/405/365 339/401/365 324/377/365
f 333/382/366 348/406/366 347/404/366 332/380/366
f 326/383/367 341/391/367 340/405/367 325/381/367
f 334/384/368 349/393/368 348/406/368 333/382/368
f 346/400/369 361/407/369 360/408/369 345/398/369
f 339/401/370 354/409/370 82/410/370
f 308/411/371 368/412/371 353/399/371
f 347/404/372 362/413/372 361/407/372 346/400/372
f 340/405/373 355/414/373 354/409/373 339/401/373
f 348/406/374 363/415/374 362/413/374 347/404/374
f 341/391/375 356/416/375 355/414/375 340/405/375
f 349/393/376 364/417/376 363/415/376 348/406/376
f 342/390/377 357/418/377 356/416/377 341/391/377
f 350/392/378 365/419/378 364/417/378 349/393/378
f 343/394/379 358/420/379 357/418/379 342/390/379
f 351/395/380 366/421/380 365/419/380 350/392/380
f 344/396/381 359/422/381 358/420/381 343/394/381
f 352/397/382 367/423/382 366/421/382 351/395/382
f 345/398/383 360/408/383 359/422/383 344/396/383
f 353/399/384 368/412/384 367/423/384 352/397/384
f 365/424/385 380/425/385 379/426/385 364/427/385
f 358/428/386 373/429/386 372/430/386 357/431/386
f 366/432/387 381/433/387 380/425/387 365/424/387
f 359/434/388 374/435/388 373/429/388 358/428/388
f 367/436/389 382/437/389 381/433/389 366/432/389
f 360/438/390 375/439/390 374/435/390 359/434/390
f 368/440/391 383/441/391 382/437/391 367/436/391
f 361/442/392 376/443/392 375/439/392 360/438/392
f 354/444/393 369/445/393 82/446/393
f 308/447/394 383/441/394 368/440/394
f 362/448/395 377/449/395 376/443/395 361/442/395
f 355/450/396 370/451/396 369/445/396 354/444/396
f 363/452/397 378/453/397 377/449/397 362/448/397
f 356/454/398 371/455/398 370/451/398 355/450/398
f 364/427/399 379/426/399 378/453/399 363/452/399
f 357/431/400 372/430/400 371/455/400 356/454/400
f 308/456/401 398/457/401 383/441/401
f 377/449/402 392/458/402 391/459/402 376/443/402
f 370/451/403 385/460/403 384/461/403 369/445/403
f 378/453/404 393/462/404 392/458/404 377/449/404
f 371/455/405 386/463/405 385/460/405 370/451/405
f 379/426/406 394/464/406 393/462/406 378/453/406
f 372/430/407 387/465/407 386/463/407 371/455/407
f 380/425/408 395/466/408 394/464/408 379/426/408
f 373/429/409 388/467/409 387/465/409 372/430/409
f 381/433/410 396/468/410 395/466/410 380/425/410
f 374/435/411 389/469/411 388/467/411 373/429/411
f 382/437/412 397/470/412 396/468/412 381/433/412
f 375/439/413 390/471/413 389/469/413 374/435/413
f 383/441/414 398/457/414 397/470/414 382/437/414
f 376/443/415 391/459/415 390/471/415 375/439/415
f 369/445/416 384/461/416 82/472/416
f 396/468/417 411/473/417 410/474/417 395/466/417
f 389/469/418 404/475/418 403/476/418 388/467/418
f 397/470/419 412/477/419 411/473/419 396/468/419
f 390/471/420 405/478/420 404/475/420 389/469/420
f 398/457/421 413/479/421 412/477/421 397/470/421
f 391/459/422 406/480/422 405/478/422 390/471/422
f 384/461/423 399/481/423 82/482/423
f 308/483/424 413/479/424 398/457/424
f 392/458/425 407/484/425 406/480/425 391/459/425
f 385/460/426 400/485/426 399/481/426 384/461/426
f 393/462/427 408/486/427 407/484/427 392/458/427
f 386/463/428 401/487/428 400/485/428 385/460/428
f 394/464/429 409/488/429 408/486/429 393/462/429
f 387/465/430 402/489/430 401/487/430 386/463/430
f 395/466/431 410/474/431 409/488/431 394/464/431
f 388/467/432 403/476/432 402/489/432 387/465/432
f 400/485/433 415/490/433 414/491/433 399/481/433
f 408/486/434 423/492/434 422/493/434 407/484/434
f 401/487/435 416/494/435 415/490/435 400/485/435
f 409/488/436 424/495/436 423/492/436 408/486/436
f 402/489/437 417/496/437 416/494/437 401/487/437
f 410/474/438 425/497/438 424/495/438 409/488/438
f 403/476/439 418/498/439 417/496/439 402/489/439
f 411/473/440 426/499/440 425/497/440 410/474/440
f 404/475/441 419/500/441 418/498/441 403/476/441
f 412/477/442 427/501/442 426/499/442 411/473/442
f 405/478/443 420/502/443 419/500/443 404/475/443
f 413/479/444 428/503/444 427/501/444 412/477/444
f 406/480/445 421/504/445 420/502/445 405/478/445
f 399/481/446 414/491/446 82/505/446
f 308/506/447 428/503/447 413/479/447
f 407/484/448 422/493/448 421/504/448 406/480/448
f 419/500/449 434/507/449 433/508/449 418/498/449
f 427/501/450 442/509/450 441/510/450 426/499/450
f 420/502/451 435/511/451 434/507/451 419/500/451
f 428/503/452 443/512/452 442/509/452 427/501/452
f 421/504/453 436/513/453 435/511/453 420/502/453
f 414/491/454 429/514/454 82/515/454
f 308/516/455 443/512/455 428/503/455
f 422/493/456 437/517/456 436/513/456 421/504/456
f 415/490/457 430/518/457 429/514/457 414/491/457
f 423/492/458 438/519/458 437/517/458 422/493/458
f 416/494/459 431/520/459 430/518/459 415/490/459
f 424/495/460 439/521/460 438/519/460 423/492/460
f 417/496/461 432/522/461 431/520/461 416/494/461
f 425/497/462 440/523/462 439/521/462 424/495/462
f 418/498/463 433/508/463 432/522/463 417/496/463
f 426/499/464 441/510/464 440/523/464 425/497/464
f 438/519/465 453/524/465 452/525/465 437/517/465
f 431/520/466 446/526/466 445/527/466 430/518/466
f 439/521/467 454/528/467 453/524/467 438/519/467
f 432/522/468 447/529/468 446/526/468 431/520/468
f 440/523/469 455/530/469 454/528/469 439/521/469
f 433/508/470 448/531/470 447/529/470 432/522/470
f 441/510/471 456/532/471 455/530/471 440/523/471
f 434/507/472 449/533/472 448/531/472 433/508/472
f 442/509/473 457/534/473 456/532/473 441/510/473
f 435/511/474 450/535/474 449/533/474 434/507/474
f 443/512/475 458/536/475 457/534/475 442/509/475
f 436/513/476 451/537/476 450/535/476 435/511/476
f 429/514/477 444/538/477 82/539/477
f 308/540/478 458/536/478 443/512/478
f 437/517/479 452/525/479 451/537/479 436/513/479
f 430/518/480 445/527/480 444/538/480 429/514/480
f 457/534/481 472/541/481 471/542/481 456/532/481
f 450/535/482 465/543/482 464/544/482 449/533/482
f 458/536/483 473/545/483 472/541/483 457/534/483
f 451/537/484 466/546/484 465/543/484 450/535/484
f 444/538/485 459/547/485 82/548/485
f 308/549/486 473/545/486 458/536/486
f 452/525/487 467/550/487 466/546/487 451/537/487
f 445/527/488 460/551/488 459/547/488 444/538/488
f 453/524/489 468/552/489 467/550/489 452/525/489
f 446/526/490 461/553/490 460/551/490 445/527/490
f 454/528/491 469/554/491 468/552/491 453/524/491
f 447/529/492 462/555/492 461/553/492 446/526/492
f 455/530/493 470/556/493 469/554/493 454/528/493
f 448/531/494 463/557/494 462/555/494 447/529/494
f 456/532/495 471/542/495 470/556/495 455/530/495
f 449/533/496 464/544/496 463/557/496 448/531/496
f 461/553/497 1/5/497 475/8/497 460/551/497
f 469/554/498 6/9/498 478/1/498 468/552/498
f 462/555/499 476/11/499 1/5/499 461/553/499
f 470/556/500 479/13/500 6/9/500 469/554/500
f 463/557/501 2/15/501 476/11/501 462/555/501
f 471/542/502 480/17/502 479/13/502 470/556/502
f 464/544/503 477/19/503 2/15/503 463/557/503
f 472/541/504 481/21/504 480/17/504 471/542/504
f 465/543/505 3/23/505 477/19/505 464/544/505
f 473/545/506 482/25/506 481/21/506 472/541/506
f 466/546/507 4/27/507 3/23/507 465/543/507
f 459/547/508 474/29/508 82/558/508
f 308/559/509 482/25/509 473/545/509
f 467/550/510 5/4/510 4/27/510 466/546/510
f 460/551/511 475/8/511 474/29/511 459/547/511
f 468/552/512 478/1/512 5/4/512 467/550/512
